<?xml version="1.0" encoding="iso-8859-1"?>
<!-- Uploaded to: SVG Repo, www.svgrepo.com, Generator: SVG Repo Mixer Tools -->
<svg fill="#000000" height="800px" width="800px" version="1.1" id="Layer_1" xmlns="http://www.w3.org/2000/svg" xmlns:xlink="http://www.w3.org/1999/xlink" 
	 viewBox="0 0 512 512" xml:space="preserve">
<g>
	<g>
		<path d="M378.777,363.625c-5.77,0-10.449,4.679-10.449,10.449v0.137c0,5.77,4.679,10.449,10.449,10.449
			c5.77,0,10.449-4.679,10.449-10.449v-0.137C389.226,368.304,384.546,363.625,378.777,363.625z"/>
	</g>
</g>
<g>
	<g>
		<path d="M511.991,209.868c0-0.886-0.101-1.785-0.34-2.681L472.037,57.923c-1.215-4.58-5.36-7.769-10.099-7.769H50.064
			c-4.739,0-8.884,3.189-10.099,7.769L0.35,207.187c-0.237,0.896-0.339,1.794-0.34,2.679c-0.003,0.001-0.006,0.001-0.01,0.002
			v241.528c0,5.77,4.678,10.449,10.449,10.449h491.102c5.77,0,10.449-4.679,10.449-10.449V209.868
			C511.998,209.868,511.995,209.868,511.991,209.868z M430.151,71.054h23.749l34.068,128.366h-57.817V71.054z M266.45,71.054h60.952
			v128.366H266.45V71.054z M325.557,220.317c-4.274,11.674-15.495,20.028-28.63,20.028c-13.136,0-24.357-8.354-28.631-20.028
			H325.557z M184.6,71.054h60.952v128.366H184.6V71.054z M243.707,220.317c-4.274,11.674-15.495,20.028-28.631,20.028
			c-13.135,0-24.357-8.354-28.63-20.028H243.707z M102.749,71.054h60.953v128.366h-60.953V71.054z M161.857,220.317
			c-4.274,11.674-15.495,20.028-28.631,20.028s-24.357-8.354-28.631-20.028H161.857z M92.3,240.878
			c9.39,12.362,24.238,20.364,40.925,20.364s31.535-8.002,40.926-20.364c9.391,12.362,24.238,20.364,40.924,20.364
			c16.687,0,31.535-8.002,40.926-20.364c8.765,11.539,22.286,19.273,37.616,20.253v87.459H54.556v-87.448
			C69.94,260.198,83.511,252.449,92.3,240.878z M58.102,71.054h23.749v128.366H24.034L58.102,71.054z M80.006,220.317
			c-4.274,11.674-15.495,20.028-28.63,20.028c-13.134,0-24.343-8.356-28.617-20.028H80.006z M23.477,440.947
			c3.728-7.098,11.118-11.951,19.618-11.951c0.736,0,1.494,0.04,2.319,0.123c4.702,0.468,9.131-2.267,10.812-6.682
			c4.142-10.889,14.721-18.204,26.322-18.204c11.604,0,22.182,7.315,26.323,18.203c1.678,4.416,6.111,7.15,10.813,6.683
			c0.811-0.082,1.589-0.123,2.315-0.123c8.501,0,15.892,4.852,19.62,11.951H23.477z M329.14,440.947H163.823
			c-4.417-17.837-19.87-31.341-38.626-32.729c-8.629-15.132-24.952-24.881-42.651-24.881c-17.697,0-34.021,9.748-42.65,24.881
			c-6.91,0.512-13.37,2.671-18.998,6.082V251.196c3.873,2.865,8.164,5.192,12.759,6.887v100.956c0,5.77,4.679,10.449,10.449,10.449
			h259.959c5.77,0,10.449-4.679,10.449-10.449V258.132c5.348-1.956,10.273-4.786,14.624-8.302V440.947z M348.3,71.054h60.953
			v128.366H348.3V71.054z M407.408,220.317c-4.274,11.674-15.495,20.028-28.631,20.028c-13.136,0-24.357-8.354-28.631-20.028
			H407.408z M446.172,440.947h-56.947v-32.933c0-5.77-4.679-10.449-10.449-10.449c-5.77,0-10.449,4.679-10.449,10.449v32.933h-18.29
			V252.41c8.209,5.566,18.096,8.833,28.739,8.833c16.686,0,31.535-8.002,40.925-20.364c6.566,8.644,15.805,15.144,26.47,18.279
			V440.947z M431.996,220.317h57.246c-4.274,11.672-15.482,20.028-28.617,20.028C447.491,240.345,436.27,231.991,431.996,220.317z
			 M491.103,440.947H467.07v-180.11c8.92-1.122,17.135-4.539,24.033-9.641V440.947z"/>
	</g>
</g>
</svg>